<svg width="22" height="22" viewBox="0 0 22 22" fill="none" xmlns="http://www.w3.org/2000/svg">
<path d="M21.2143 18.8571H0.785714C0.57733 18.8571 0.37748 18.9399 0.23013 19.0873C0.0827804 19.2346 0 19.4345 0 19.6429L0 21.2143C0 21.4227 0.0827804 21.6225 0.23013 21.7699C0.37748 21.9172 0.57733 22 0.785714 22H21.2143C21.4227 22 21.6225 21.9172 21.7699 21.7699C21.9172 21.6225 22 21.4227 22 21.2143V19.6429C22 19.4345 21.9172 19.2346 21.7699 19.0873C21.6225 18.9399 21.4227 18.8571 21.2143 18.8571ZM21.2143 12.5714H0.785714C0.57733 12.5714 0.37748 12.6542 0.23013 12.8016C0.0827804 12.9489 0 13.1488 0 13.3571L0 14.9286C0 15.137 0.0827804 15.3368 0.23013 15.4842C0.37748 15.6315 0.57733 15.7143 0.785714 15.7143H21.2143C21.4227 15.7143 21.6225 15.6315 21.7699 15.4842C21.9172 15.3368 22 15.137 22 14.9286V13.3571C22 13.1488 21.9172 12.9489 21.7699 12.8016C21.6225 12.6542 21.4227 12.5714 21.2143 12.5714ZM21.2143 6.28571H0.785714C0.57733 6.28571 0.37748 6.36849 0.23013 6.51585C0.0827804 6.66319 0 6.86304 0 7.07143L0 8.64286C0 8.85124 0.0827804 9.05109 0.23013 9.19844C0.37748 9.34579 0.57733 9.42857 0.785714 9.42857H21.2143C21.4227 9.42857 21.6225 9.34579 21.7699 9.19844C21.9172 9.05109 22 8.85124 22 8.64286V7.07143C22 6.86304 21.9172 6.66319 21.7699 6.51585C21.6225 6.36849 21.4227 6.28571 21.2143 6.28571ZM21.2143 0H0.785714C0.57733 0 0.37748 0.0827803 0.23013 0.23013C0.0827804 0.37748 0 0.57733 0 0.785714L0 2.35714C0 2.56553 0.0827804 2.76538 0.23013 2.91273C0.37748 3.06008 0.57733 3.14286 0.785714 3.14286H21.2143C21.4227 3.14286 21.6225 3.06008 21.7699 2.91273C21.9172 2.76538 22 2.56553 22 2.35714V0.785714C22 0.57733 21.9172 0.37748 21.7699 0.23013C21.6225 0.0827803 21.4227 0 21.2143 0Z" fill="black"/>
</svg>
