<svg width="25" height="25" viewBox="0 0 25 25" fill="none" xmlns="http://www.w3.org/2000/svg">
<g clip-path="url(#clip0_2_21)">
<path d="M24.8012 8.55C17.8805 2.14883 7.1168 2.15117 0.198829 8.55C-0.061327 8.79063 -0.0664052 9.19805 0.185157 9.44766L1.52266 10.7746C1.7625 11.0129 2.14844 11.018 2.39766 10.7895C8.09766 5.56758 16.9016 5.56641 22.6027 10.7895C22.852 11.018 23.2379 11.0125 23.4777 10.7746L24.8152 9.44766C25.0664 9.19805 25.0613 8.79063 24.8012 8.55ZM12.5 16.25C11.1191 16.25 10 17.3691 10 18.75C10 20.1309 11.1191 21.25 12.5 21.25C13.8809 21.25 15 20.1309 15 18.75C15 17.3691 13.8809 16.25 12.5 16.25ZM20.4168 12.9848C15.9145 9.00313 9.08047 9.00742 4.5832 12.9848C4.31367 13.223 4.30508 13.6367 4.56094 13.8891L5.90625 15.2168C6.14063 15.448 6.51797 15.4637 6.76758 15.248C10.0469 12.4133 14.9605 12.4195 18.232 15.248C18.4816 15.4637 18.859 15.4484 19.0934 15.2168L20.4387 13.8891C20.6949 13.6367 20.6859 13.2227 20.4168 12.9848Z" fill="black"/>
</g>
<defs>
<clipPath id="clip0_2_21">
<rect width="25" height="25" fill="white"/>
</clipPath>
</defs>
</svg>
