<svg width="25" height="25" viewBox="0 0 25 25" fill="none" xmlns="http://www.w3.org/2000/svg">
<path d="M21.25 8.75V11.25H22.5V13.75H21.25V16.25H2.5V8.75H21.25ZM21.875 6.25H1.875C0.839453 6.25 0 7.08945 0 8.125V16.875C0 17.9105 0.839453 18.75 1.875 18.75H21.875C22.9105 18.75 23.75 17.9105 23.75 16.875V16.25H24.0625C24.5803 16.25 25 15.8303 25 15.3125V9.6875C25 9.16973 24.5803 8.75 24.0625 8.75H23.75V8.125C23.75 7.08945 22.9105 6.25 21.875 6.25ZM16.25 10H3.75V15H16.25V10Z" fill="black"/>
</svg>
