<svg width="25" height="25" viewBox="0 0 25 25" fill="none" xmlns="http://www.w3.org/2000/svg">
<path d="M8.4375 13.75H6.5625C6.21719 13.75 5.9375 14.0297 5.9375 14.375V21.875C5.9375 22.2203 6.21719 22.5 6.5625 22.5H8.4375C8.78281 22.5 9.0625 22.2203 9.0625 21.875V14.375C9.0625 14.0297 8.78281 13.75 8.4375 13.75ZM3.4375 17.5H1.5625C1.21719 17.5 0.9375 17.7797 0.9375 18.125V21.875C0.9375 22.2203 1.21719 22.5 1.5625 22.5H3.4375C3.78281 22.5 4.0625 22.2203 4.0625 21.875V18.125C4.0625 17.7797 3.78281 17.5 3.4375 17.5ZM13.4375 10H11.5625C11.2172 10 10.9375 10.2797 10.9375 10.625V21.875C10.9375 22.2203 11.2172 22.5 11.5625 22.5H13.4375C13.7828 22.5 14.0625 22.2203 14.0625 21.875V10.625C14.0625 10.2797 13.7828 10 13.4375 10ZM18.4375 6.25H16.5625C16.2172 6.25 15.9375 6.52969 15.9375 6.875V21.875C15.9375 22.2203 16.2172 22.5 16.5625 22.5H18.4375C18.7828 22.5 19.0625 22.2203 19.0625 21.875V6.875C19.0625 6.52969 18.7828 6.25 18.4375 6.25ZM23.4375 2.5H21.5625C21.2172 2.5 20.9375 2.77969 20.9375 3.125V21.875C20.9375 22.2203 21.2172 22.5 21.5625 22.5H23.4375C23.7828 22.5 24.0625 22.2203 24.0625 21.875V3.125C24.0625 2.77969 23.7828 2.5 23.4375 2.5Z" fill="black"/>
</svg>
